# xmcd
#
# Track frame offsets:
#	150
#	2953
#	42093
#	81656
#	109713
#	133217
#	157267
#	186360
#	207000
#	246530
#	284702
#
# Disc length: 4231 seconds
#
# Revision: 0
# Processed by: cddbd v1.5.2PL0 Copyright (c) Steve Scherf et al.
# Submitted via: audiograbber 1.83.01
#
DISCID=ac10850b
DTITLE=Grateful Dead - 93-05-22 Shoreline Amphitheatre, Mountain View CA
DYEAR=1900
DGENRE=
TTITLE0=Stage Banter and Tuning
TTITLE1=Mississippi Half-Step Uptown Toodeloo
TTITLE2=Little Red Rooster
TTITLE3=Brown Eyed Women
TTITLE4=Broken Arrow
TTITLE5=Supplication
TTITLE6=Stagger Lee
TTITLE7=Promised Land
TTITLE8=Foolish Heart
TTITLE9=Men Smart, Women Are Smarter
TTITLE10=Ship Of Fools
EXTD=
EXTT0=
EXTT1=
EXTT2=
EXTT3=
EXTT4=
EXTT5=
EXTT6=
EXTT7=
EXTT8=
EXTT9=
EXTT10=
PLAYORDER=
